<svg class="svg-icon" style="width: 1em;height: 1em;vertical-align: middle;fill: currentColor;overflow: hidden;" viewBox="0 0 1024 1024" version="1.1" xmlns="http://www.w3.org/2000/svg"><path d="M512 597.333333v85.333334a256 256 0 0 0-256 256H170.666667a341.333333 341.333333 0 0 1 341.333333-341.333334z m0-42.666666c-141.44 0-256-114.56-256-256s114.56-256 256-256 256 114.56 256 256-114.56 256-256 256z m0-85.333334c94.293333 0 170.666667-76.373333 170.666667-170.666666s-76.373333-170.666667-170.666667-170.666667-170.666667 76.373333-170.666667 170.666667 76.373333 170.666667 170.666667 170.666666z m403.029333 385.365334l64.170667 64.170666-60.330667 60.330667-64.170666-64.170667a170.666667 170.666667 0 1 1 60.330666-60.330666zM768 853.333333a85.333333 85.333333 0 1 0 0-170.666666 85.333333 85.333333 0 0 0 0 170.666666z"  /></svg>